<svg width="58" height="52" viewBox="0 0 58 52" fill="none" xmlns="http://www.w3.org/2000/svg">
<g clip-path="url(#clip0_980_4150)">
<path d="M10.2826 42.7733C7.1625 42.7733 4.625 40.2412 4.625 37.1279C4.625 34.0145 7.1625 31.4824 10.2826 31.4824C13.4027 31.4824 15.9402 34.0145 15.9402 37.1279C15.9402 40.2412 13.4027 42.7733 10.2826 42.7733ZM10.2826 33.5494C8.30437 33.5494 6.69643 35.1539 6.69643 37.1279C6.69643 39.1018 8.30437 40.7063 10.2826 40.7063C12.2608 40.7063 13.8687 39.1018 13.8687 37.1279C13.8687 35.1539 12.2608 33.5494 10.2826 33.5494Z" fill="#FF882E"/>
<path d="M19.5284 52.0005H1.03571C0.463482 52.0005 0 51.538 0 50.967V48.0732C0 44.0116 3.3117 40.707 7.38205 40.707H13.1795C17.2498 40.707 20.5615 44.0116 20.5615 48.0732V50.967C20.5615 51.538 20.098 52.0005 19.5258 52.0005H19.5284ZM2.07143 49.9335H18.4927V48.0732C18.4927 45.151 16.1105 42.774 13.1821 42.774H7.38464C4.45616 42.774 2.07402 45.151 2.07402 48.0732V49.9335H2.07143Z" fill="#FF882E"/>
<path d="M28.9232 42.7733C25.8031 42.7733 23.2656 40.2412 23.2656 37.1279C23.2656 34.0145 25.8031 31.4824 28.9232 31.4824C32.0433 31.4824 34.5808 34.0145 34.5808 37.1279C34.5808 40.2412 32.0433 42.7733 28.9232 42.7733ZM28.9232 33.5494C26.945 33.5494 25.3371 35.1539 25.3371 37.1279C25.3371 39.1018 26.945 40.7063 28.9232 40.7063C30.9014 40.7063 32.5094 39.1018 32.5094 37.1279C32.5094 35.1539 30.9014 33.5494 28.9232 33.5494Z" fill="#FF882E"/>
<path d="M38.1729 52.0005H19.6802C19.108 52.0005 18.6445 51.538 18.6445 50.967V48.0732C18.6445 44.0116 21.9562 40.707 26.0266 40.707H31.824C35.8944 40.707 39.206 44.0116 39.206 48.0732V50.967C39.206 51.538 38.7426 52.0005 38.1703 52.0005H38.1729ZM20.716 49.9335H37.1372V48.0732C37.1372 45.151 34.7551 42.774 31.8266 42.774H26.0292C23.1007 42.774 20.7185 45.151 20.7185 48.0732V49.9335H20.716Z" fill="#FF882E"/>
<path d="M47.7162 42.7733C44.5961 42.7733 42.0586 40.2412 42.0586 37.1279C42.0586 34.0145 44.5961 31.4824 47.7162 31.4824C50.8363 31.4824 53.3738 34.0145 53.3738 37.1279C53.3738 40.2412 50.8363 42.7733 47.7162 42.7733ZM47.7162 33.5494C45.738 33.5494 44.13 35.1539 44.13 37.1279C44.13 39.1018 45.738 40.7063 47.7162 40.7063C49.6944 40.7063 51.3023 39.1018 51.3023 37.1279C51.3023 35.1539 49.6944 33.5494 47.7162 33.5494Z" fill="#FF882E"/>
<path d="M56.9659 52.0005H38.4732C37.901 52.0005 37.4375 51.538 37.4375 50.967V48.0732C37.4375 44.0116 40.7492 40.707 44.8196 40.707H50.617C54.6873 40.707 57.999 44.0116 57.999 48.0732V50.967C57.999 51.538 57.5355 52.0005 56.9633 52.0005H56.9659ZM39.5089 49.9335H55.9302V48.0732C55.9302 45.151 53.548 42.774 50.6196 42.774H44.8221C41.8937 42.774 39.5115 45.151 39.5115 48.0732V49.9335H39.5089Z" fill="#FF882E"/>
<path d="M56.9655 27.8241H31.1529C30.5807 27.8241 30.1172 27.3616 30.1172 26.7906V1.03349C30.1172 0.462486 30.5807 0 31.1529 0H56.9655C57.5377 0 58.0012 0.462486 58.0012 1.03349V26.7906C58.0012 27.3616 57.5377 27.8241 56.9655 27.8241ZM32.1886 25.7571H55.9298V2.06698H32.1886V25.7571Z" fill="#FF882E"/>
<path d="M15.3743 10.6527C12.4302 10.6527 10.0352 8.26274 10.0352 5.32505C10.0352 2.38736 12.4328 0 15.3743 0C18.3157 0 20.7134 2.38994 20.7134 5.32764C20.7134 8.26533 18.3183 10.6553 15.3743 10.6553V10.6527ZM15.3743 2.06698C13.5721 2.06698 12.1066 3.52937 12.1066 5.32764C12.1066 7.12591 13.5721 8.58829 15.3743 8.58829C17.1764 8.58829 18.6419 7.12591 18.6419 5.32764C18.6419 3.52937 17.1764 2.06698 15.3743 2.06698Z" fill="#FF882E"/>
<path d="M22.5457 13.5157C21.9735 13.5157 21.51 13.0532 21.51 12.4822C21.51 11.4745 20.6892 10.6529 19.6768 10.6529H11.0726C10.0628 10.6529 9.2394 11.472 9.2394 12.4822C9.2394 13.0532 8.77592 13.5157 8.20368 13.5157C7.63145 13.5157 7.16797 13.0532 7.16797 12.4822C7.16797 10.3351 8.91833 8.58594 11.0726 8.58594H19.6768C21.8285 8.58594 23.5815 10.3325 23.5815 12.4822C23.5815 13.0532 23.118 13.5157 22.5457 13.5157Z" fill="#FF882E"/>
<path d="M5.3404 30.6873C4.76817 30.6873 4.30469 30.2248 4.30469 29.6538V18.2054C4.30469 17.6344 4.76817 17.1719 5.3404 17.1719H25.4177C25.99 17.1719 26.4534 17.6344 26.4534 18.2054V28.4033C26.4534 28.9743 25.99 29.4368 25.4177 29.4368C24.8455 29.4368 24.382 28.9743 24.382 28.4033V19.2389H6.37612V29.6538C6.37612 30.2248 5.91263 30.6873 5.3404 30.6873Z" fill="#FF882E"/>
<path d="M39.7562 10.6529H36.8873C36.315 10.6529 35.8516 10.1904 35.8516 9.61943C35.8516 9.04842 36.315 8.58594 36.8873 8.58594H39.7562C40.3284 8.58594 40.7919 9.04842 40.7919 9.61943C40.7919 10.1904 40.3284 10.6529 39.7562 10.6529Z" fill="#FF882E"/>
<path d="M52.1938 10.6529H45.4927C44.9205 10.6529 44.457 10.1904 44.457 9.61943C44.457 9.04842 44.9205 8.58594 45.4927 8.58594H52.1938C52.7661 8.58594 53.2295 9.04842 53.2295 9.61943C53.2295 10.1904 52.7661 10.6529 52.1938 10.6529Z" fill="#FF882E"/>
<path d="M39.7562 19.2389H36.8873C36.315 19.2389 35.8516 18.7764 35.8516 18.2054C35.8516 17.6344 36.315 17.1719 36.8873 17.1719H39.7562C40.3284 17.1719 40.7919 17.6344 40.7919 18.2054C40.7919 18.7764 40.3284 19.2389 39.7562 19.2389Z" fill="#FF882E"/>
<path d="M52.1938 19.2389H45.4927C44.9205 19.2389 44.457 18.7764 44.457 18.2054C44.457 17.6344 44.9205 17.1719 45.4927 17.1719H52.1938C52.7661 17.1719 53.2295 17.6344 53.2295 18.2054C53.2295 18.7764 52.7661 19.2389 52.1938 19.2389Z" fill="#FF882E"/>
</g>
<defs>
<clipPath id="clip0_980_4150">
<rect width="58" height="52" fill="white"/>
</clipPath>
</defs>
</svg>
