<svg width="65" height="54" viewBox="0 0 65 54" fill="none" xmlns="http://www.w3.org/2000/svg">
<path d="M4.48036 54C2.01094 54 0 51.9772 0 49.4866V21.731C0 19.2433 2.00804 17.2176 4.48036 17.2176H14.9384C17.4078 17.2176 19.4187 19.2404 19.4187 21.731V49.4866C19.4187 51.9742 17.4107 54 14.9384 54H4.48036ZM4.48036 19.559C3.29062 19.559 2.32143 20.5354 2.32143 21.7339V49.4895C2.32143 50.688 3.29062 51.6644 4.48036 51.6644H14.9384C16.1281 51.6644 17.0973 50.688 17.0973 49.4895V21.7339C17.0973 20.5354 16.1281 19.559 14.9384 19.559H4.48036Z" fill="#FF882E"/>
<path d="M10.1824 39.6501H9.23348C7.28348 39.6501 5.69911 38.054 5.69911 36.0896V26.5221C5.69911 24.5577 7.28348 22.9616 9.23348 22.9616H10.1824C12.1324 22.9616 13.7167 24.5577 13.7167 26.5221V36.0896C13.7167 38.054 12.1324 39.6501 10.1824 39.6501ZM9.23348 25.3002C8.56317 25.3002 8.02054 25.8497 8.02054 26.5221V36.0896C8.02054 36.7649 8.56607 37.3115 9.23348 37.3115H10.1824C10.8527 37.3115 11.3953 36.762 11.3953 36.0896V26.5221C11.3953 25.8468 10.8498 25.3002 10.1824 25.3002H9.23348Z" fill="#FF882E"/>
<path d="M9.70647 51.1294C7.49531 51.1294 5.69621 49.3171 5.69621 47.0896C5.69621 44.8621 7.49531 43.0498 9.70647 43.0498C11.9176 43.0498 13.7167 44.8621 13.7167 47.0896C13.7167 49.3171 11.9176 51.1294 9.70647 51.1294ZM9.70647 45.3883C8.775 45.3883 8.01763 46.1512 8.01763 47.0896C8.01763 48.0279 8.775 48.7909 9.70647 48.7909C10.6379 48.7909 11.3953 48.0279 11.3953 47.0896C11.3953 46.1512 10.6379 45.3883 9.70647 45.3883Z" fill="#FF882E"/>
<path d="M60.5196 54H50.0616C47.5922 54 45.5812 51.9772 45.5812 49.4866V21.731C45.5812 19.2433 47.5893 17.2176 50.0616 17.2176H60.5196C62.9891 17.2176 65 19.2404 65 21.731V49.4866C65 51.9742 62.992 54 60.5196 54ZM50.0645 19.559C48.8748 19.559 47.9056 20.5354 47.9056 21.7339V49.4895C47.9056 50.688 48.8748 51.6644 50.0645 51.6644H60.5225C61.7123 51.6644 62.6815 50.688 62.6815 49.4895V21.7339C62.6815 20.5354 61.7123 19.559 60.5225 19.559H50.0645Z" fill="#FF882E"/>
<path d="M55.7665 39.6501H54.8176C52.8676 39.6501 51.2833 38.054 51.2833 36.0896V26.5221C51.2833 24.5577 52.8676 22.9616 54.8176 22.9616H55.7665C57.7165 22.9616 59.3009 24.5577 59.3009 26.5221V36.0896C59.3009 38.054 57.7165 39.6501 55.7665 39.6501ZM54.8176 25.3002C54.1473 25.3002 53.6047 25.8497 53.6047 26.5221V36.0896C53.6047 36.7649 54.1502 37.3115 54.8176 37.3115H55.7665C56.4368 37.3115 56.9795 36.762 56.9795 36.0896V26.5221C56.9795 25.8468 56.4339 25.3002 55.7665 25.3002H54.8176Z" fill="#FF882E"/>
<path d="M55.2935 51.1294C53.0824 51.1294 51.2833 49.3171 51.2833 47.0896C51.2833 44.8621 53.0824 43.0498 55.2935 43.0498C57.5047 43.0498 59.3038 44.8621 59.3038 47.0896C59.3038 49.3171 57.5047 51.1294 55.2935 51.1294ZM55.2935 45.3883C54.3621 45.3883 53.6047 46.1512 53.6047 47.0896C53.6047 48.0279 54.3621 48.7909 55.2935 48.7909C56.225 48.7909 56.9824 48.0279 56.9824 47.0896C56.9824 46.1512 56.225 45.3883 55.2935 45.3883Z" fill="#FF882E"/>
<path d="M37.729 54H27.271C24.8016 54 22.7906 51.9772 22.7906 49.4866V4.5134C22.7906 2.02577 24.7987 0 27.271 0H37.729C40.1984 0 42.2094 2.02284 42.2094 4.5134V49.4866C42.2094 51.9742 40.2013 54 37.729 54ZM27.271 2.33855C26.0813 2.33855 25.1121 3.31489 25.1121 4.5134V49.4866C25.1121 50.6851 26.0813 51.6614 27.271 51.6614H37.729C38.9188 51.6614 39.8879 50.6851 39.8879 49.4866V4.5134C39.8879 3.31489 38.9188 2.33855 37.729 2.33855H27.271Z" fill="#FF882E"/>
<path d="M32.9759 36.7795H32.027C30.077 36.7795 28.4926 35.1835 28.4926 33.2191V12.1721C28.4926 10.2078 30.077 8.6117 32.027 8.6117H32.9759C34.9259 8.6117 36.5103 10.2078 36.5103 12.1721V33.2191C36.5103 35.1835 34.9259 36.7795 32.9759 36.7795ZM32.0241 10.9473C31.3538 10.9473 30.8112 11.4969 30.8112 12.1692V33.2162C30.8112 33.8914 31.3567 34.438 32.0241 34.438H32.973C33.6433 34.438 34.1859 33.8885 34.1859 33.2162V12.1721C34.1859 11.4969 33.6404 10.9503 32.973 10.9503H32.0241V10.9473Z" fill="#FF882E"/>
<path d="M32.5 48.2589C30.2888 48.2589 28.4897 46.4465 28.4897 44.219C28.4897 41.9916 30.2888 40.1792 32.5 40.1792C34.7112 40.1792 36.5103 41.9916 36.5103 44.219C36.5103 46.4465 34.7112 48.2589 32.5 48.2589ZM32.5 42.5177C31.5685 42.5177 30.8112 43.2807 30.8112 44.219C30.8112 45.1574 31.5685 45.9203 32.5 45.9203C33.4315 45.9203 34.1888 45.1574 34.1888 44.219C34.1888 43.2807 33.4315 42.5177 32.5 42.5177Z" fill="#FF882E"/>
</svg>
