<svg width="58" height="65" viewBox="0 0 58 65" fill="none" xmlns="http://www.w3.org/2000/svg">
<path d="M54.2628 26.5083C55.3861 29.4711 56 32.6857 56 36.0426C56 50.9302 43.9111 63 29 63C14.0889 63 2 50.9302 2 36.0426C2 21.155 14.0889 9.08522 29 9.08522C29.675 9.08522 30.3424 9.11065 31.0046 9.15897M21.4808 10.1432L20.169 20.6744C19.9397 22.508 18.9973 24.1788 17.5454 25.3207L15.4159 26.9966C13.9997 28.1105 14.2111 30.3154 15.8133 31.142L25.2531 36.0172C26.2389 36.5258 26.6464 37.7211 26.1777 38.7256L20.7523 50.33C19.9652 52.011 17.5326 51.8864 16.9239 50.1317L14.1373 42.0953C13.8443 41.251 13.2203 40.5643 12.4077 40.193L11.8703 39.9463C10.4057 39.275 9.64915 37.6422 10.0796 36.0935C10.4413 34.7939 9.97009 33.4054 8.88755 32.5966L4.40198 29.2371M33.0424 18.795L32.2349 19.7385C30.9358 21.2593 31.3587 23.5888 33.1111 24.5577L35.6507 25.9616L34.6624 32.1465C34.2981 34.4226 35.5742 36.6402 37.7241 37.4795L41.0736 38.7841L41.7027 46.9654C41.8658 49.0788 44.2677 50.213 46.0075 48.9974L54.6831 44.3765M44.7441 2C49.441 2 53.2516 5.80201 53.2516 10.4941C53.2516 18.5559 44.7441 30.2163 44.7441 30.2163H44.5989C44.5989 30.2163 36.0913 18.5559 36.0913 10.4941C36.0913 5.80455 39.8993 2 44.5989 2H44.7441ZM48.4488 8.93343C49.3123 11.0148 48.3223 13.401 46.2376 14.2632C44.1529 15.1253 41.763 14.1369 40.8995 12.0555C40.036 9.97413 41.0259 7.58792 43.1106 6.72578C45.1953 5.86364 47.5853 6.85204 48.4488 8.93343Z" stroke="#FF882E" stroke-width="2.5" stroke-linecap="round" stroke-linejoin="round"/>
</svg>
