<svg width="69" height="65" viewBox="0 0 69 65" fill="none" xmlns="http://www.w3.org/2000/svg">
<path d="M14.512 9.90524C14.4012 9.90524 14.2903 9.88966 14.1855 9.86161L0.905655 6.15289C0.372736 6.0033 0 5.51088 0 4.9499C0 4.38891 0.369655 3.89649 0.905655 3.7469L14.1855 0.0444111C14.4012 -0.0148037 14.626 -0.0148037 14.8417 0.0444111L28.1215 3.75002C28.6544 3.89961 29.0272 4.39203 29.0272 4.95301C29.0272 5.51399 28.6575 6.00641 28.1215 6.15601L14.8417 9.86161C14.7338 9.89278 14.6229 9.90524 14.5151 9.90524H14.512ZM5.86828 4.95301L14.512 7.36524L23.1558 4.95301L14.512 2.54079L5.86828 4.95301Z" fill="#FF882E"/>
<path d="M15.0881 18.3512H13.9329C13.8189 18.3512 13.705 18.3356 13.5941 18.3044L5.51094 15.967C4.9811 15.8143 4.61761 15.325 4.61761 14.7671V6.58921C4.61761 5.90045 5.16901 5.34258 5.84979 5.34258C6.53058 5.34258 7.08198 5.90045 7.08198 6.58921V13.8259L14.1054 15.8548H14.9156L21.939 13.8259V6.58921C21.939 5.90045 22.4904 5.34258 23.1712 5.34258C23.852 5.34258 24.4034 5.90045 24.4034 6.58921V14.7671C24.4034 15.325 24.0399 15.8143 23.5101 15.967L15.4269 18.3044C15.316 18.3356 15.2021 18.3512 15.0881 18.3512Z" fill="#FF882E"/>
<path d="M46.2038 53.8894H9.16745C8.48667 53.8894 7.93527 53.3316 7.93527 52.6428V19.9344C7.93527 19.2456 8.48667 18.6877 9.16745 18.6877C9.84823 18.6877 10.3996 19.2456 10.3996 19.9344V51.3962H44.9716V49.626C44.9716 48.9372 45.523 48.3793 46.2038 48.3793C46.8846 48.3793 47.436 48.9372 47.436 49.626V52.6428C47.436 53.3316 46.8846 53.8894 46.2038 53.8894Z" fill="#FF882E"/>
<path d="M38.2686 5.71657H32.7453C32.0645 5.71657 31.5131 5.15871 31.5131 4.46994C31.5131 3.78118 32.0645 3.22331 32.7453 3.22331H38.2686C38.9493 3.22331 39.5007 3.78118 39.5007 4.46994C39.5007 5.15871 38.9493 5.71657 38.2686 5.71657Z" fill="#FF882E"/>
<path d="M46.2038 30.1411C45.523 30.1411 44.9716 29.5833 44.9716 28.8945V9.8211C44.9716 9.13233 45.523 8.57447 46.2038 8.57447C46.8846 8.57447 47.436 9.13233 47.436 9.8211V28.8914C47.436 29.5802 46.8846 30.138 46.2038 30.138V30.1411Z" fill="#FF882E"/>
<path d="M46.2007 11.0677H38.2655C37.5847 11.0677 37.0333 10.5099 37.0333 9.8211V4.46683C37.0333 4.00557 37.2828 3.58484 37.6833 3.36668C38.0837 3.14852 38.5704 3.17345 38.9493 3.42901L46.8846 8.78016C47.3374 9.08559 47.5377 9.6528 47.3806 10.1795C47.2235 10.7062 46.7429 11.0646 46.2007 11.0646V11.0677ZM39.4977 8.57447H42.1315L39.4977 6.79802V8.57447Z" fill="#FF882E"/>
<path d="M43.5577 45.8549C41.8881 45.8549 40.2185 45.2129 38.9463 43.9257C36.4018 41.3515 36.4018 37.1659 38.9463 34.5916C41.4907 32.0173 45.6278 32.0173 48.1722 34.5916C50.7167 37.1659 50.7167 41.3515 48.1722 43.9257C46.9 45.2129 45.2304 45.8549 43.5608 45.8549H43.5577ZM43.5577 35.1557C42.4734 35.1557 41.4538 35.5827 40.6867 36.3587C39.1034 37.9606 39.1034 40.563 40.6867 42.1649C41.4538 42.9409 42.4734 43.3679 43.5577 43.3679C44.642 43.3679 45.6617 42.9409 46.4287 42.1649C48.0121 40.563 48.0121 37.9575 46.4287 36.3587C45.6617 35.5827 44.642 35.1557 43.5577 35.1557Z" fill="#FF882E"/>
<path d="M43.5577 51.2061C40.5327 51.2061 37.5077 50.0405 35.2035 47.7124C30.5982 43.0531 30.5982 35.4705 35.2035 30.8112C37.4338 28.5548 40.4002 27.3113 43.5577 27.3113C46.7152 27.3113 49.6786 28.5548 51.9119 30.8112C56.5172 35.4705 56.5172 43.0531 51.9119 47.7124C49.6077 50.0436 46.5827 51.2061 43.5577 51.2061ZM43.5577 29.8014C41.0595 29.8014 38.7121 30.7863 36.947 32.5721C33.3029 36.259 33.3029 42.2615 36.947 45.9484C40.5912 49.6353 46.5242 49.6353 50.1684 45.9484C53.8126 42.2615 53.8126 36.259 50.1684 32.5721C48.4033 30.7863 46.056 29.8014 43.5577 29.8014Z" fill="#FF882E"/>
<path d="M52.91 53.7523C52.5958 53.7523 52.2785 53.6307 52.0382 53.3877L48.2985 49.6041C47.818 49.118 47.818 48.3295 48.2985 47.8402C48.7791 47.354 49.5584 47.354 50.0421 47.8402L53.7818 51.6237C54.2623 52.1099 54.2623 52.8984 53.7818 53.3877C53.5415 53.6307 53.2273 53.7523 52.91 53.7523Z" fill="#FF882E"/>
<path d="M56.6497 49.9688C56.3355 49.9688 56.0182 49.8472 55.7779 49.6041L52.0382 45.8206C51.5577 45.3344 51.5577 44.5459 52.0382 44.0566C52.5188 43.5705 53.3012 43.5705 53.7818 44.0566L57.5214 47.8402C58.002 48.3263 58.002 49.1148 57.5214 49.6041C57.2812 49.8472 56.9639 49.9688 56.6497 49.9688Z" fill="#FF882E"/>
<path d="M62.2623 65C60.7251 65 59.191 64.4079 58.0205 63.2267L53.5353 58.6889C52.4017 57.542 51.7795 56.018 51.7795 54.3974C51.7795 52.7768 52.4017 51.2528 53.5353 50.1059L54.2777 49.3548C55.4113 48.2079 56.9177 47.5784 58.5195 47.5784C60.1213 47.5784 61.6277 48.2079 62.7613 49.3548L67.2464 53.8925C69.5845 56.258 69.5845 60.107 67.2464 62.4725L66.5041 63.2236C65.3335 64.4079 63.7994 64.9969 62.2623 64.9969V65ZM58.5195 50.0716C57.5769 50.0716 56.6897 50.4425 56.0212 51.1188L55.2789 51.8699C54.6104 52.5462 54.2438 53.4438 54.2438 54.3974C54.2438 55.3511 54.6104 56.2487 55.2789 56.925L59.764 61.4627C60.4325 62.139 61.3196 62.5099 62.2623 62.5099C63.2049 62.5099 64.092 62.139 64.7605 61.4627L65.5029 60.7116C66.1714 60.0353 66.5379 59.1377 66.5379 58.1841C66.5379 57.2304 66.1714 56.3328 65.5029 55.6565L61.0178 51.1188C60.3493 50.4425 59.4621 50.0716 58.5195 50.0716Z" fill="#FF882E"/>
<path d="M27.9459 17.491C27.2652 17.491 26.7138 16.9331 26.7138 16.2444V6.58921C26.7138 5.90045 27.2652 5.34258 27.9459 5.34258C28.6267 5.34258 29.1781 5.90045 29.1781 6.58921V16.2444C29.1781 16.9331 28.6267 17.491 27.9459 17.491Z" fill="#FF882E"/>
<path d="M25.5586 22.3186C25.1304 22.3186 24.7361 22.0942 24.5112 21.7264C24.2863 21.3586 24.2679 20.9005 24.4589 20.5141L26.8462 15.6865C27.0557 15.2626 27.4808 14.9977 27.949 14.9977C28.4172 14.9977 28.8423 15.2657 29.0518 15.6865L31.4361 20.5141C31.6271 20.9005 31.6055 21.3586 31.3837 21.7264C31.1589 22.0942 30.7615 22.3186 30.3364 22.3186H25.5586ZM27.5516 19.8253H28.3372L27.9459 19.0306L27.5547 19.8253H27.5516Z" fill="#FF882E"/>
<path d="M26.5875 30.5245H14.2749C13.5941 30.5245 13.0427 29.9666 13.0427 29.2779C13.0427 28.5891 13.5941 28.0312 14.2749 28.0312H26.5875C27.2682 28.0312 27.8196 28.5891 27.8196 29.2779C27.8196 29.9666 27.2682 30.5245 26.5875 30.5245Z" fill="#FF882E"/>
<path d="M26.5875 38.3097H14.2749C13.5941 38.3097 13.0427 37.7518 13.0427 37.0631C13.0427 36.3743 13.5941 35.8164 14.2749 35.8164H26.5875C27.2682 35.8164 27.8196 36.3743 27.8196 37.0631C27.8196 37.7518 27.2682 38.3097 26.5875 38.3097Z" fill="#FF882E"/>
<path d="M26.5875 46.098H14.2749C13.5941 46.098 13.0427 45.5401 13.0427 44.8514C13.0427 44.1626 13.5941 43.6047 14.2749 43.6047H26.5875C27.2682 43.6047 27.8196 44.1626 27.8196 44.8514C27.8196 45.5401 27.2682 46.098 26.5875 46.098Z" fill="#FF882E"/>
</svg>
