<svg width="59" height="56" viewBox="0 0 59 56" fill="none" xmlns="http://www.w3.org/2000/svg">
<path d="M42.0236 44.9114C41.8682 44.9114 41.7128 44.8905 41.5626 44.8489L26.3194 40.6965C25.5555 40.4884 25.0445 39.8223 25.0445 39.0418C25.0445 38.2613 25.5581 37.5952 26.3194 37.3871L41.56 33.2347C41.8629 33.1515 42.1816 33.1515 42.4845 33.2347L57.7251 37.3871C58.489 37.5952 59 38.2613 59 39.0418C59 39.8223 58.4864 40.4884 57.7251 40.6965L42.4845 44.8489C42.3344 44.8905 42.179 44.9114 42.0236 44.9114ZM28.1685 39.0418L42.0236 42.817L55.8786 39.0418L42.0236 35.2693L28.1685 39.0418Z" fill="#FF882E"/>
<path d="M42.7005 55.9974H41.344C41.1833 55.9974 41.02 55.974 40.8672 55.9324L30.6102 53.0392C29.8674 52.8285 29.3485 52.152 29.3485 51.3871V41.1857C29.3485 40.6107 29.82 40.145 30.4022 40.145C30.9843 40.145 31.4558 40.6107 31.4558 41.1857V51.1139L41.394 53.9186H42.6478L52.5861 51.1139V41.1857C52.5861 40.6107 53.0576 40.145 53.6397 40.145C54.2218 40.145 54.6933 40.6107 54.6933 41.1857V51.3871C54.6933 52.1494 54.1744 52.8285 53.4316 53.0392L43.1747 55.935C43.0192 55.9792 42.8586 56 42.6979 56L42.7005 55.9974Z" fill="#FF882E"/>
<path d="M23.4746 49.9223H6.84325C3.0713 49.9223 0 46.8913 0 43.163V6.75934C0 3.03104 3.06866 0 6.84325 0H48.7983C52.5703 0 55.6416 3.03104 55.6416 6.75934V29.418C55.6416 29.9929 55.1701 30.4587 54.588 30.4587C54.0058 30.4587 53.5344 29.9929 53.5344 29.418V6.75934C53.5344 4.18101 51.4113 2.0814 48.7983 2.0814H6.84325C4.23291 2.0814 2.10724 4.17841 2.10724 6.75934V43.1656C2.10724 45.7439 4.23028 47.8435 6.84325 47.8435H23.4746C24.0567 47.8435 24.5282 48.3092 24.5282 48.8842C24.5282 49.4592 24.0567 49.9249 23.4746 49.9249V49.9223Z" fill="#FF882E"/>
<path d="M54.5853 9.63427H1.05362C0.471494 9.63427 0 9.16856 0 8.59357C0 8.01858 0.471494 7.55287 1.05362 7.55287H54.5853C55.1675 7.55287 55.639 8.01858 55.639 8.59357C55.639 9.16856 55.1675 9.63427 54.5853 9.63427Z" fill="#FF882E"/>
<path d="M26.5459 29.7796H9.10853C8.52641 29.7796 8.05491 29.3139 8.05491 28.7389V16.149C8.05491 15.5741 8.52641 15.1083 9.10853 15.1083H26.5459C27.128 15.1083 27.5995 15.5741 27.5995 16.149V28.7389C27.5995 29.3139 27.128 29.7796 26.5459 29.7796ZM10.1622 27.6982H25.4923V17.1897H10.1622V27.6982Z" fill="#FF882E"/>
<path d="M46.9387 19.1072H32.0932C31.5111 19.1072 31.0396 18.6415 31.0396 18.0665C31.0396 17.4915 31.5111 17.0258 32.0932 17.0258H46.9387C47.5208 17.0258 47.9923 17.4915 47.9923 18.0665C47.9923 18.6415 47.5208 19.1072 46.9387 19.1072Z" fill="#FF882E"/>
<path d="M49.3304 26.9801H32.0932C31.5111 26.9801 31.0396 26.5144 31.0396 25.9394C31.0396 25.3644 31.5111 24.8987 32.0932 24.8987H49.3304C49.9125 24.8987 50.384 25.3644 50.384 25.9394C50.384 26.5144 49.9125 26.9801 49.3304 26.9801Z" fill="#FF882E"/>
</svg>
