<svg width="75" height="58" viewBox="0 0 75 58" fill="none" xmlns="http://www.w3.org/2000/svg">
<path d="M64.2713 23.2193V7.02193C64.2713 4.24336 62.0323 2 59.2592 2H7.01217C4.23899 2 2 4.24336 2 7.02193V40.3079C2 43.0865 4.23899 45.3298 7.01217 45.3298H42.2111M31.7434 23.5909H56.9861M31.7434 28.9089H42.2111M31.7434 34.2269H42.2111M55.7359 39.7499L59.4524 43.485L64.8964 38.0418M16.5137 22.1902H17.5366C21.6963 22.1902 25.0605 25.5723 25.0605 29.7288V31.8469H8.98976V29.7288C8.98976 25.5609 12.3653 22.1902 16.5137 22.1902ZM21.3781 17.8288C21.3781 20.2429 19.4232 22.1902 17.0251 22.1902C14.627 22.1902 12.6722 20.2315 12.6722 17.8288C12.6722 15.426 14.627 13.4673 17.0251 13.4673C19.4232 13.4673 21.3781 15.426 21.3781 17.8288ZM33.3232 10.5407H55.4176C56.2901 10.5407 56.9974 11.2494 56.9974 12.1236V16.2459C56.9974 17.1201 56.2901 17.8288 55.4176 17.8288H33.3232C32.4507 17.8288 31.7434 17.1201 31.7434 16.2459V12.1236C31.7434 11.2494 32.4507 10.5407 33.3232 10.5407ZM59.9525 56C55.6449 54.5879 52.7468 52.5496 50.8146 50.4998C48.2006 47.7326 46.9049 43.9519 46.9049 40.1371V29.4555C55.7018 31.1523 59.9525 27.4399 59.9525 27.4399C59.9525 27.4399 64.2031 31.1523 73 29.4555V40.1371C73 43.9519 71.7043 47.7326 69.0903 50.4998C67.1468 52.5496 64.26 54.5879 59.9525 56Z" stroke="#FF882E" stroke-width="2.5" stroke-linecap="round" stroke-linejoin="round"/>
</svg>
