<svg width="55" height="53" viewBox="0 0 55 53" fill="none" xmlns="http://www.w3.org/2000/svg">
<path d="M36.3933 12.4717C36.2386 12.4717 36.0864 12.452 35.9366 12.4103L19.5397 7.89124C18.7859 7.68271 18.2777 7.01784 18.2777 6.23522C18.2777 5.4526 18.7835 4.78774 19.5397 4.5792L35.9342 0.0625608C36.2337 -0.0208536 36.548 -0.0208536 36.8475 0.0625608L53.2444 4.58166C53.9982 4.79019 54.5065 5.45505 54.5065 6.23768C54.5065 7.0203 54.0007 7.68516 53.2444 7.89369L36.8475 12.4128C36.6978 12.4545 36.5455 12.4741 36.3909 12.4741L36.3933 12.4717ZM20.9196 6.23768L36.3933 10.5016L51.867 6.23768L36.3933 1.97373L20.9196 6.23768Z" fill="#FF882E"/>
<path d="M37.1225 24.5373H35.6616C35.502 24.5373 35.3424 24.5152 35.1902 24.4711L24.1558 21.321C23.4217 21.1124 22.9085 20.4328 22.9085 19.6698V8.56837C22.9085 8.02618 23.348 7.58703 23.8906 7.58703C24.4333 7.58703 24.8728 8.02618 24.8728 8.56837V19.4858L35.696 22.5746H37.0882L47.9114 19.4858V8.56837C47.9114 8.02618 48.3509 7.58703 48.8935 7.58703C49.4362 7.58703 49.8757 8.02618 49.8757 8.56837V19.6698C49.8757 20.4328 49.3625 21.1124 48.6283 21.321L37.594 24.4711C37.4417 24.5152 37.2821 24.5373 37.1225 24.5373Z" fill="#FF882E"/>
<path d="M37.5842 47.5278C31.0013 47.5278 25.6462 42.177 25.6462 35.5995C25.6462 29.0221 31.0013 23.6713 37.5842 23.6713C44.167 23.6713 49.5221 29.0221 49.5221 35.5995C49.5221 42.177 44.167 47.5278 37.5842 47.5278ZM37.5842 25.634C32.0842 25.634 27.6105 30.104 27.6105 35.5995C27.6105 41.0951 32.0842 45.5651 37.5842 45.5651C43.0842 45.5651 47.5578 41.0951 47.5578 35.5995C47.5578 30.104 43.0842 25.634 37.5842 25.634Z" fill="#FF882E"/>
<path d="M37.5842 53.0012C27.9788 53.0012 20.1658 45.1946 20.1658 35.5971C20.1658 35.1898 20.1781 34.8095 20.2051 34.4342C20.571 28.8699 23.6279 23.7817 28.3815 20.8229C28.8431 20.5359 29.4471 20.6782 29.7344 21.1369C30.0217 21.5982 29.8792 22.2017 29.4201 22.4888C25.2018 25.1138 22.4911 29.628 22.1645 34.5667C22.14 34.9003 22.1301 35.2364 22.1301 35.5971C22.1301 44.1127 29.0616 51.0385 37.5842 51.0385C46.1067 51.0385 53.0357 44.1127 53.0357 35.5971C53.0357 29.9617 49.9616 24.7753 45.0116 22.057C44.5353 21.7969 44.3634 21.1983 44.6237 20.7248C44.8839 20.2488 45.483 20.0771 45.9569 20.3372C51.5355 23.4014 55 29.2478 55 35.5995C55 45.1971 47.1871 53.0037 37.5842 53.0037V53.0012Z" fill="#FF882E"/>
<path d="M37.5842 42.0543H34.844C34.3013 42.0543 33.8618 41.6152 33.8618 41.073C33.8618 40.5308 34.3013 40.0916 34.844 40.0916H37.5842C38.554 40.0916 39.3422 39.3041 39.3422 38.335C39.3422 37.3659 38.554 36.5784 37.5842 36.5784C35.5315 36.5784 33.8618 34.9101 33.8618 32.8591C33.8618 30.8081 35.5315 29.1398 37.5842 29.1398H40.3243C40.867 29.1398 41.3065 29.579 41.3065 30.1212C41.3065 30.6634 40.867 31.1025 40.3243 31.1025H37.5842C36.6143 31.1025 35.8261 31.89 35.8261 32.8591C35.8261 33.8282 36.6143 34.6157 37.5842 34.6157C39.6368 34.6157 41.3065 36.284 41.3065 38.335C41.3065 40.386 39.6368 42.0543 37.5842 42.0543Z" fill="#FF882E"/>
<path d="M37.5842 31.1074C37.0415 31.1074 36.602 30.6683 36.602 30.1261V27.3881C36.602 26.8459 37.0415 26.4068 37.5842 26.4068C38.1268 26.4068 38.5663 26.8459 38.5663 27.3881V30.1261C38.5663 30.6683 38.1268 31.1074 37.5842 31.1074Z" fill="#FF882E"/>
<path d="M37.5842 44.7923C37.0415 44.7923 36.602 44.3531 36.602 43.8109V41.073C36.602 40.5308 37.0415 40.0916 37.5842 40.0916C38.1268 40.0916 38.5663 40.5308 38.5663 41.073V43.8109C38.5663 44.3531 38.1268 44.7923 37.5842 44.7923Z" fill="#FF882E"/>
<path d="M16.3208 20.1581H5.78482C3.80335 20.1581 2.19263 18.5487 2.19263 16.5688V13.0286C2.19263 11.0487 3.80335 9.43931 5.78482 9.43931H18.5134C19.056 9.43931 19.4955 9.87847 19.4955 10.4207C19.4955 10.9629 19.056 11.402 18.5134 11.402H5.78482C4.88616 11.402 4.15692 12.1331 4.15692 13.0286V16.5688C4.15692 17.4667 4.88862 18.1954 5.78482 18.1954H16.3208C16.8634 18.1954 17.3029 18.6345 17.3029 19.1767C17.3029 19.7189 16.8634 20.1581 16.3208 20.1581Z" fill="#FF882E"/>
<path d="M3.9654 44.2427C1.78013 44.2427 0 42.6333 0 40.6535V37.1108C0 35.1309 1.77768 33.5215 3.9654 33.5215H17.4527C17.9953 33.5215 18.4348 33.9607 18.4348 34.5029C18.4348 35.0451 17.9953 35.4842 17.4527 35.4842H3.9654C2.86295 35.4842 1.96429 36.2153 1.96429 37.1108V40.6535C1.96429 41.5514 2.86049 42.28 3.9654 42.28H18.5134C19.056 42.28 19.4955 42.7192 19.4955 43.2614C19.4955 43.8036 19.056 44.2427 18.5134 44.2427H3.9654Z" fill="#FF882E"/>
<path d="M18.5109 28.9166H5.78482C3.80335 28.9166 2.19263 27.3072 2.19263 25.3273V21.7871C2.19263 19.8072 3.80335 18.1978 5.78482 18.1978H18.5134C19.056 18.1978 19.4955 18.637 19.4955 19.1792C19.4955 19.7214 19.056 20.1605 18.5134 20.1605H5.78482C4.88616 20.1605 4.15692 20.8916 4.15692 21.7871V25.3273C4.15692 26.2252 4.88862 26.9539 5.78482 26.9539H18.5134C19.056 26.9539 19.4955 27.393 19.4955 27.9352C19.4955 28.4774 19.056 28.9166 18.5134 28.9166H18.5109Z" fill="#FF882E"/>
<path d="M14.7542 35.4867H7.22857C5.6596 35.4867 4.38036 34.1692 4.38036 32.5475V29.893C4.38036 28.2738 5.65714 26.9539 7.22857 26.9539H18.5109C19.0536 26.9539 19.4931 27.393 19.4931 27.9352C19.4931 28.4774 19.0536 28.9166 18.5109 28.9166L7.22857 28.9166C6.74241 28.9166 6.34464 29.3533 6.34464 29.893V32.5475C6.34464 33.0848 6.73996 33.524 7.22857 33.524H14.7542C15.2969 33.524 15.7364 33.9631 15.7364 34.5053C15.7364 35.0475 15.2969 35.4867 14.7542 35.4867Z" fill="#FF882E"/>
</svg>
